<?xml version="1.0" encoding="UTF-8" standalone="no"?>
<!-- Created with PhysiCell (http://PhysiCell.MathCancer.org/) -->
<svg 
 xmlns:dc="http://purl.org/dc/elements/1.1/" 
 xmlns:cc="http://creativecommons.org/ns#" 
 xmlns:rdf="http://www.w3.org/1999/02/22-rdf-syntax-ns#" 
 xmlns:svg="http://www.w3.org/2000/svg" 
 xmlns="http://www.w3.org/2000/svg" 
 version="1.1" 
 width="800" 
 height="856" 
 id="svg2">
  <rect x="0" y="0" width="800" height="856" stroke-width="1.6" stroke="white" fill="white"/>
  <text x="10" y="24"
   font-family="Arial" font-size="20" fill="black" >
   Current time: 6 days, 0 hours, and 0.01 minutes, z = 0.00 &#956;m
  </text>
  <text x="10" y="46"
   font-family="Arial" font-size="19" fill="black" >
   151 agents
  </text>
 <g id="tissue" 
    transform="translate(0,856) scale(1,-1)">
  <g id="ECM">
  </g>
  <g id="cells">
   <g id="cell3659">
  <circle cx="160.086" cy="383.063" r="10.5" stroke-width="0.5" stroke="black" fill="paleturquoise"/>
  <circle cx="160.086" cy="383.063" r="4.87399" stroke-width="0.5" stroke="paleturquoise" fill="paleturquoise"/>
   </g>
   <g id="cell3656">
  <circle cx="759.391" cy="800.254" r="6.36487" stroke-width="0.5" stroke="black" fill="rosybrown"/>
  <circle cx="759.391" cy="800.254" r="2.97335" stroke-width="0.5" stroke="rosybrown" fill="rosybrown"/>
   </g>
   <g id="cell2981">
  <circle cx="371.637" cy="243.757" r="4.85042" stroke-width="0.5" stroke="black" fill="red"/>
  <circle cx="371.637" cy="243.757" r="2.25137" stroke-width="0.5" stroke="red" fill="red"/>
   </g>
   <g id="cell3563">
  <circle cx="564.208" cy="701.548" r="10.5018" stroke-width="0.5" stroke="black" fill="paleturquoise"/>
  <circle cx="564.208" cy="701.548" r="4.87455" stroke-width="0.5" stroke="paleturquoise" fill="paleturquoise"/>
   </g>
   <g id="cell3155">
  <circle cx="180.976" cy="341.116" r="4.85042" stroke-width="0.5" stroke="black" fill="red"/>
  <circle cx="180.976" cy="341.116" r="2.25137" stroke-width="0.5" stroke="red" fill="red"/>
   </g>
   <g id="cell3460">
  <circle cx="800.032" cy="20.7396" r="2.47051" stroke-width="0.5" stroke="black" fill="rosybrown"/>
  <circle cx="800.032" cy="20.7396" r="1.64366" stroke-width="0.5" stroke="rosybrown" fill="rosybrown"/>
   </g>
   <g id="cell3338">
  <circle cx="96.8691" cy="598.985" r="4.85042" stroke-width="0.5" stroke="black" fill="red"/>
  <circle cx="96.8691" cy="598.985" r="2.25137" stroke-width="0.5" stroke="red" fill="red"/>
   </g>
   <g id="cell3558">
  <circle cx="783.204" cy="800.089" r="7.0004" stroke-width="0.5" stroke="black" fill="rosybrown"/>
  <circle cx="783.204" cy="800.089" r="3.2493" stroke-width="0.5" stroke="rosybrown" fill="rosybrown"/>
   </g>
   <g id="cell3295">
  <circle cx="-0.0778179" cy="791.307" r="7.0004" stroke-width="0.5" stroke="black" fill="rosybrown"/>
  <circle cx="-0.0778179" cy="791.307" r="3.2493" stroke-width="0.5" stroke="rosybrown" fill="rosybrown"/>
   </g>
   <g id="cell3459">
  <circle cx="372.621" cy="621.681" r="10.5009" stroke-width="0.5" stroke="black" fill="paleturquoise"/>
  <circle cx="372.621" cy="621.681" r="4.87428" stroke-width="0.5" stroke="paleturquoise" fill="paleturquoise"/>
   </g>
   <g id="cell3526">
  <circle cx="-0.224723" cy="775.195" r="7.0004" stroke-width="0.5" stroke="black" fill="rosybrown"/>
  <circle cx="-0.224723" cy="775.195" r="3.2493" stroke-width="0.5" stroke="rosybrown" fill="rosybrown"/>
   </g>
   <g id="cell3538">
  <circle cx="22.3923" cy="800.284" r="7.0004" stroke-width="0.5" stroke="black" fill="rosybrown"/>
  <circle cx="22.3923" cy="800.284" r="3.2493" stroke-width="0.5" stroke="rosybrown" fill="rosybrown"/>
   </g>
   <g id="cell2901">
  <circle cx="220.49" cy="478.146" r="10.5" stroke-width="0.5" stroke="black" fill="paleturquoise"/>
  <circle cx="220.49" cy="478.146" r="4.87399" stroke-width="0.5" stroke="paleturquoise" fill="paleturquoise"/>
   </g>
   <g id="cell3517">
  <circle cx="368.203" cy="681.698" r="8.72129" stroke-width="0.5" stroke="black" fill="rosybrown"/>
  <circle cx="368.203" cy="681.698" r="4.12784" stroke-width="0.5" stroke="rosybrown" fill="rosybrown"/>
   </g>
   <g id="cell3531">
  <circle cx="333.167" cy="590.612" r="10.5" stroke-width="0.5" stroke="black" fill="paleturquoise"/>
  <circle cx="333.167" cy="590.612" r="4.87399" stroke-width="0.5" stroke="paleturquoise" fill="paleturquoise"/>
   </g>
   <g id="cell3487">
  <circle cx="113.496" cy="538.979" r="10.5" stroke-width="0.5" stroke="black" fill="paleturquoise"/>
  <circle cx="113.496" cy="538.979" r="4.87399" stroke-width="0.5" stroke="paleturquoise" fill="paleturquoise"/>
   </g>
   <g id="cell2871">
  <circle cx="800.094" cy="317.48" r="6.49878" stroke-width="0.5" stroke="black" fill="orangered"/>
  <circle cx="800.094" cy="317.48" r="3.2493" stroke-width="0.5" stroke="orangered" fill="orangered"/>
   </g>
   <g id="cell3114">
  <circle cx="478.03" cy="671.005" r="10.5" stroke-width="0.5" stroke="black" fill="paleturquoise"/>
  <circle cx="478.03" cy="671.005" r="4.87399" stroke-width="0.5" stroke="paleturquoise" fill="paleturquoise"/>
   </g>
   <g id="cell3625">
  <circle cx="387.059" cy="499.182" r="10.5" stroke-width="0.5" stroke="black" fill="paleturquoise"/>
  <circle cx="387.059" cy="499.182" r="4.87399" stroke-width="0.5" stroke="paleturquoise" fill="paleturquoise"/>
   </g>
   <g id="cell3500">
  <circle cx="526.148" cy="800.29" r="7.0004" stroke-width="0.5" stroke="black" fill="rosybrown"/>
  <circle cx="526.148" cy="800.29" r="3.2493" stroke-width="0.5" stroke="rosybrown" fill="rosybrown"/>
   </g>
   <g id="cell3237">
  <circle cx="274.376" cy="530.064" r="10.5003" stroke-width="0.5" stroke="black" fill="paleturquoise"/>
  <circle cx="274.376" cy="530.064" r="4.87409" stroke-width="0.5" stroke="paleturquoise" fill="paleturquoise"/>
   </g>
   <g id="cell3192">
  <circle cx="187.761" cy="394.039" r="10.5" stroke-width="0.5" stroke="black" fill="paleturquoise"/>
  <circle cx="187.761" cy="394.039" r="4.87399" stroke-width="0.5" stroke="paleturquoise" fill="paleturquoise"/>
   </g>
   <g id="cell3128">
  <circle cx="211.101" cy="502.645" r="4.85042" stroke-width="0.5" stroke="black" fill="red"/>
  <circle cx="211.101" cy="502.645" r="2.25137" stroke-width="0.5" stroke="red" fill="red"/>
   </g>
   <g id="cell2861">
  <circle cx="800.037" cy="396.846" r="6.49878" stroke-width="0.5" stroke="black" fill="sandybrown"/>
  <circle cx="800.037" cy="396.846" r="3.2493" stroke-width="0.5" stroke="sandybrown" fill="sandybrown"/>
   </g>
   <g id="cell2889">
  <circle cx="319.014" cy="547.83" r="10.5" stroke-width="0.5" stroke="black" fill="paleturquoise"/>
  <circle cx="319.014" cy="547.83" r="4.87399" stroke-width="0.5" stroke="paleturquoise" fill="paleturquoise"/>
   </g>
   <g id="cell3075">
  <circle cx="243.366" cy="588.226" r="10.5" stroke-width="0.5" stroke="black" fill="paleturquoise"/>
  <circle cx="243.366" cy="588.226" r="4.87399" stroke-width="0.5" stroke="paleturquoise" fill="paleturquoise"/>
   </g>
   <g id="cell2916">
  <circle cx="491.749" cy="574.335" r="10.8605" stroke-width="0.5" stroke="black" fill="paleturquoise"/>
  <circle cx="491.749" cy="574.335" r="4.89953" stroke-width="0.5" stroke="paleturquoise" fill="paleturquoise"/>
   </g>
   <g id="cell2842">
  <circle cx="222.034" cy="430.865" r="11.0105" stroke-width="0.5" stroke="black" fill="paleturquoise"/>
  <circle cx="222.034" cy="430.865" r="4.91841" stroke-width="0.5" stroke="paleturquoise" fill="paleturquoise"/>
   </g>
   <g id="cell2925">
  <circle cx="429.063" cy="512.694" r="10.5" stroke-width="0.5" stroke="black" fill="paleturquoise"/>
  <circle cx="429.063" cy="512.694" r="4.87399" stroke-width="0.5" stroke="paleturquoise" fill="paleturquoise"/>
   </g>
   <g id="cell3239">
  <circle cx="111.667" cy="295.064" r="1.88102" stroke-width="0.5" stroke="black" fill="rosybrown"/>
  <circle cx="111.667" cy="295.064" r="1.18912" stroke-width="0.5" stroke="rosybrown" fill="rosybrown"/>
   </g>
   <g id="cell3615">
  <circle cx="476.599" cy="633.294" r="5.39409" stroke-width="0.5" stroke="black" fill="rosybrown"/>
  <circle cx="476.599" cy="633.294" r="2.98388" stroke-width="0.5" stroke="rosybrown" fill="rosybrown"/>
   </g>
   <g id="cell2934">
  <circle cx="178.351" cy="464.855" r="10.5" stroke-width="0.5" stroke="black" fill="paleturquoise"/>
  <circle cx="178.351" cy="464.855" r="4.87399" stroke-width="0.5" stroke="paleturquoise" fill="paleturquoise"/>
   </g>
   <g id="cell3273">
  <circle cx="43.8426" cy="507.617" r="10.5" stroke-width="0.5" stroke="black" fill="paleturquoise"/>
  <circle cx="43.8426" cy="507.617" r="4.87399" stroke-width="0.5" stroke="paleturquoise" fill="paleturquoise"/>
   </g>
   <g id="cell3521">
  <circle cx="231.943" cy="622.616" r="10.5" stroke-width="0.5" stroke="black" fill="paleturquoise"/>
  <circle cx="231.943" cy="622.616" r="4.874" stroke-width="0.5" stroke="paleturquoise" fill="paleturquoise"/>
   </g>
   <g id="cell3417">
  <circle cx="266.008" cy="351.886" r="11.379" stroke-width="0.5" stroke="black" fill="paleturquoise"/>
  <circle cx="266.008" cy="351.886" r="4.92375" stroke-width="0.5" stroke="paleturquoise" fill="paleturquoise"/>
   </g>
   <g id="cell3168">
  <circle cx="267.559" cy="415.067" r="10.5" stroke-width="0.5" stroke="black" fill="paleturquoise"/>
  <circle cx="267.559" cy="415.067" r="4.874" stroke-width="0.5" stroke="paleturquoise" fill="paleturquoise"/>
   </g>
   <g id="cell3213">
  <circle cx="410.577" cy="560.35" r="10.5" stroke-width="0.5" stroke="black" fill="paleturquoise"/>
  <circle cx="410.577" cy="560.35" r="4.87399" stroke-width="0.5" stroke="paleturquoise" fill="paleturquoise"/>
   </g>
   <g id="cell3144">
  <circle cx="324.985" cy="444.056" r="10.5" stroke-width="0.5" stroke="black" fill="paleturquoise"/>
  <circle cx="324.985" cy="444.056" r="4.87399" stroke-width="0.5" stroke="paleturquoise" fill="paleturquoise"/>
   </g>
   <g id="cell3633">
  <circle cx="209.536" cy="385.593" r="10.5" stroke-width="0.5" stroke="black" fill="paleturquoise"/>
  <circle cx="209.536" cy="385.593" r="4.87399" stroke-width="0.5" stroke="paleturquoise" fill="paleturquoise"/>
   </g>
   <g id="cell3248">
  <circle cx="220.539" cy="75.6854" r="4.85042" stroke-width="0.5" stroke="black" fill="red"/>
  <circle cx="220.539" cy="75.6854" r="2.25137" stroke-width="0.5" stroke="red" fill="red"/>
   </g>
   <g id="cell3174">
  <circle cx="602.846" cy="640.968" r="10.6309" stroke-width="0.5" stroke="black" fill="paleturquoise"/>
  <circle cx="602.846" cy="640.968" r="4.90538" stroke-width="0.5" stroke="paleturquoise" fill="paleturquoise"/>
   </g>
   <g id="cell3318">
  <circle cx="505.513" cy="698.684" r="10.5002" stroke-width="0.5" stroke="black" fill="paleturquoise"/>
  <circle cx="505.513" cy="698.684" r="4.87407" stroke-width="0.5" stroke="paleturquoise" fill="paleturquoise"/>
   </g>
   <g id="cell2899">
  <circle cx="116.082" cy="452" r="10.5" stroke-width="0.5" stroke="black" fill="paleturquoise"/>
  <circle cx="116.082" cy="452" r="4.87399" stroke-width="0.5" stroke="paleturquoise" fill="paleturquoise"/>
   </g>
   <g id="cell3153">
  <circle cx="503.116" cy="605.867" r="10.5" stroke-width="0.5" stroke="black" fill="paleturquoise"/>
  <circle cx="503.116" cy="605.867" r="4.87399" stroke-width="0.5" stroke="paleturquoise" fill="paleturquoise"/>
   </g>
   <g id="cell3619">
  <circle cx="93.27" cy="494.857" r="10.5" stroke-width="0.5" stroke="black" fill="paleturquoise"/>
  <circle cx="93.27" cy="494.857" r="4.87399" stroke-width="0.5" stroke="paleturquoise" fill="paleturquoise"/>
   </g>
   <g id="cell3689">
  <circle cx="481.884" cy="620.228" r="10.5" stroke-width="0.5" stroke="black" fill="paleturquoise"/>
  <circle cx="481.884" cy="620.228" r="4.87399" stroke-width="0.5" stroke="paleturquoise" fill="paleturquoise"/>
   </g>
   <g id="cell3141">
  <circle cx="334.297" cy="417.508" r="10.5" stroke-width="0.5" stroke="black" fill="paleturquoise"/>
  <circle cx="334.297" cy="417.508" r="4.87399" stroke-width="0.5" stroke="paleturquoise" fill="paleturquoise"/>
   </g>
   <g id="cell3595">
  <circle cx="174.873" cy="491.6" r="10.5" stroke-width="0.5" stroke="black" fill="paleturquoise"/>
  <circle cx="174.873" cy="491.6" r="4.87399" stroke-width="0.5" stroke="paleturquoise" fill="paleturquoise"/>
   </g>
   <g id="cell2846">
  <circle cx="800.056" cy="227.147" r="6.49878" stroke-width="0.5" stroke="black" fill="sandybrown"/>
  <circle cx="800.056" cy="227.147" r="3.2493" stroke-width="0.5" stroke="sandybrown" fill="sandybrown"/>
   </g>
   <g id="cell3503">
  <circle cx="375.806" cy="451.837" r="10.5074" stroke-width="0.5" stroke="black" fill="paleturquoise"/>
  <circle cx="375.806" cy="451.837" r="4.87598" stroke-width="0.5" stroke="paleturquoise" fill="paleturquoise"/>
   </g>
   <g id="cell3152">
  <circle cx="198.648" cy="733.194" r="4.85042" stroke-width="0.5" stroke="black" fill="red"/>
  <circle cx="198.648" cy="733.194" r="2.25137" stroke-width="0.5" stroke="red" fill="red"/>
   </g>
   <g id="cell3591">
  <circle cx="525.448" cy="581.339" r="10.5" stroke-width="0.5" stroke="black" fill="paleturquoise"/>
  <circle cx="525.448" cy="581.339" r="4.87399" stroke-width="0.5" stroke="paleturquoise" fill="paleturquoise"/>
   </g>
   <g id="cell3018">
  <circle cx="458.149" cy="548.586" r="10.5" stroke-width="0.5" stroke="black" fill="paleturquoise"/>
  <circle cx="458.149" cy="548.586" r="4.87399" stroke-width="0.5" stroke="paleturquoise" fill="paleturquoise"/>
   </g>
   <g id="cell3281">
  <circle cx="636.325" cy="95.3861" r="4.85042" stroke-width="0.5" stroke="black" fill="red"/>
  <circle cx="636.325" cy="95.3861" r="2.25137" stroke-width="0.5" stroke="red" fill="red"/>
   </g>
   <g id="cell3583">
  <circle cx="529.901" cy="626.378" r="10.5" stroke-width="0.5" stroke="black" fill="paleturquoise"/>
  <circle cx="529.901" cy="626.378" r="4.87399" stroke-width="0.5" stroke="paleturquoise" fill="paleturquoise"/>
   </g>
   <g id="cell2995">
  <circle cx="9.7643" cy="800.093" r="7.0004" stroke-width="0.5" stroke="black" fill="rosybrown"/>
  <circle cx="9.7643" cy="800.093" r="3.2493" stroke-width="0.5" stroke="rosybrown" fill="rosybrown"/>
   </g>
   <g id="cell3325">
  <circle cx="-0.05128" cy="136.385" r="5.81454" stroke-width="0.5" stroke="black" fill="rosybrown"/>
  <circle cx="-0.05128" cy="136.385" r="2.75187" stroke-width="0.5" stroke="rosybrown" fill="rosybrown"/>
   </g>
   <g id="cell3378">
  <circle cx="432.161" cy="672.853" r="10.5" stroke-width="0.5" stroke="black" fill="paleturquoise"/>
  <circle cx="432.161" cy="672.853" r="4.87399" stroke-width="0.5" stroke="paleturquoise" fill="paleturquoise"/>
   </g>
   <g id="cell3108">
  <circle cx="401.653" cy="537.262" r="6.02429" stroke-width="0.5" stroke="black" fill="rosybrown"/>
  <circle cx="401.653" cy="537.262" r="3.1897" stroke-width="0.5" stroke="rosybrown" fill="rosybrown"/>
   </g>
   <g id="cell2996">
  <circle cx="292.792" cy="517.471" r="4.85042" stroke-width="0.5" stroke="black" fill="red"/>
  <circle cx="292.792" cy="517.471" r="2.25137" stroke-width="0.5" stroke="red" fill="red"/>
   </g>
   <g id="cell2938">
  <circle cx="24.8326" cy="-0.0468762" r="6.36487" stroke-width="0.5" stroke="black" fill="rosybrown"/>
  <circle cx="24.8326" cy="-0.0468762" r="2.97335" stroke-width="0.5" stroke="rosybrown" fill="rosybrown"/>
   </g>
   <g id="cell3297">
  <circle cx="351.708" cy="464.547" r="10.5" stroke-width="0.5" stroke="black" fill="paleturquoise"/>
  <circle cx="351.708" cy="464.547" r="4.87399" stroke-width="0.5" stroke="paleturquoise" fill="paleturquoise"/>
   </g>
   <g id="cell3465">
  <circle cx="440.649" cy="636.883" r="5.39409" stroke-width="0.5" stroke="black" fill="rosybrown"/>
  <circle cx="440.649" cy="636.883" r="2.98388" stroke-width="0.5" stroke="rosybrown" fill="rosybrown"/>
   </g>
   <g id="cell2907">
  <circle cx="243.628" cy="398.996" r="10.5" stroke-width="0.5" stroke="black" fill="paleturquoise"/>
  <circle cx="243.628" cy="398.996" r="4.87399" stroke-width="0.5" stroke="paleturquoise" fill="paleturquoise"/>
   </g>
   <g id="cell3362">
  <circle cx="256.218" cy="377.233" r="4.85042" stroke-width="0.5" stroke="black" fill="red"/>
  <circle cx="256.218" cy="377.233" r="2.25137" stroke-width="0.5" stroke="red" fill="red"/>
   </g>
   <g id="cell3030">
  <circle cx="347.176" cy="630.373" r="10.5" stroke-width="0.5" stroke="black" fill="paleturquoise"/>
  <circle cx="347.176" cy="630.373" r="4.87399" stroke-width="0.5" stroke="paleturquoise" fill="paleturquoise"/>
   </g>
   <g id="cell3539">
  <circle cx="275.035" cy="488.004" r="10.5" stroke-width="0.5" stroke="black" fill="paleturquoise"/>
  <circle cx="275.035" cy="488.004" r="4.87399" stroke-width="0.5" stroke="paleturquoise" fill="paleturquoise"/>
   </g>
   <g id="cell3627">
  <circle cx="93.6642" cy="387.952" r="10.5" stroke-width="0.5" stroke="black" fill="paleturquoise"/>
  <circle cx="93.6642" cy="387.952" r="4.87399" stroke-width="0.5" stroke="paleturquoise" fill="paleturquoise"/>
   </g>
   <g id="cell2966">
  <circle cx="163.66" cy="58.4674" r="4.85042" stroke-width="0.5" stroke="black" fill="red"/>
  <circle cx="163.66" cy="58.4674" r="2.25137" stroke-width="0.5" stroke="red" fill="red"/>
   </g>
   <g id="cell3585">
  <circle cx="398.49" cy="654.285" r="10.5" stroke-width="0.5" stroke="black" fill="paleturquoise"/>
  <circle cx="398.49" cy="654.285" r="4.87399" stroke-width="0.5" stroke="paleturquoise" fill="paleturquoise"/>
   </g>
   <g id="cell3648">
  <circle cx="293.739" cy="377.544" r="7.0004" stroke-width="0.5" stroke="black" fill="cyan"/>
  <circle cx="293.739" cy="377.544" r="3.2493" stroke-width="0.5" stroke="cyan" fill="cyan"/>
   </g>
   <g id="cell3471">
  <circle cx="479.832" cy="520.506" r="3.13099" stroke-width="0.5" stroke="black" fill="rosybrown"/>
  <circle cx="479.832" cy="520.506" r="2.28447" stroke-width="0.5" stroke="rosybrown" fill="rosybrown"/>
   </g>
   <g id="cell3621">
  <circle cx="324.513" cy="390.585" r="8.11148" stroke-width="0.5" stroke="black" fill="rosybrown"/>
  <circle cx="324.513" cy="390.585" r="3.38363" stroke-width="0.5" stroke="rosybrown" fill="rosybrown"/>
   </g>
   <g id="cell3671">
  <circle cx="457.701" cy="695.124" r="10.5" stroke-width="0.5" stroke="black" fill="paleturquoise"/>
  <circle cx="457.701" cy="695.124" r="4.87399" stroke-width="0.5" stroke="paleturquoise" fill="paleturquoise"/>
   </g>
   <g id="cell3348">
  <circle cx="134.566" cy="430.636" r="10.5" stroke-width="0.5" stroke="black" fill="paleturquoise"/>
  <circle cx="134.566" cy="430.636" r="4.87399" stroke-width="0.5" stroke="paleturquoise" fill="paleturquoise"/>
   </g>
   <g id="cell3024">
  <circle cx="355.706" cy="416.675" r="10.5" stroke-width="0.5" stroke="black" fill="paleturquoise"/>
  <circle cx="355.706" cy="416.675" r="4.87399" stroke-width="0.5" stroke="paleturquoise" fill="paleturquoise"/>
   </g>
   <g id="cell3620">
  <circle cx="293.515" cy="336.544" r="7.0004" stroke-width="0.5" stroke="black" fill="cyan"/>
  <circle cx="293.515" cy="336.544" r="3.2493" stroke-width="0.5" stroke="cyan" fill="cyan"/>
   </g>
   <g id="cell3528">
  <circle cx="769.729" cy="800.075" r="5.81454" stroke-width="0.5" stroke="black" fill="rosybrown"/>
  <circle cx="769.729" cy="800.075" r="2.75187" stroke-width="0.5" stroke="rosybrown" fill="rosybrown"/>
   </g>
   <g id="cell3501">
  <circle cx="340.182" cy="353.923" r="10.5" stroke-width="0.5" stroke="black" fill="paleturquoise"/>
  <circle cx="340.182" cy="353.923" r="4.87399" stroke-width="0.5" stroke="paleturquoise" fill="paleturquoise"/>
   </g>
   <g id="cell2922">
  <circle cx="63.3366" cy="454.762" r="11.8286" stroke-width="0.5" stroke="black" fill="purple"/>
  <circle cx="63.3366" cy="454.762" r="5.01598" stroke-width="0.5" stroke="purple" fill="purple"/>
   </g>
   <g id="cell3661">
  <circle cx="539.177" cy="657.46" r="10.5" stroke-width="0.5" stroke="black" fill="paleturquoise"/>
  <circle cx="539.177" cy="657.46" r="4.87399" stroke-width="0.5" stroke="paleturquoise" fill="paleturquoise"/>
   </g>
   <g id="cell3320">
  <circle cx="531.367" cy="515.294" r="1.44632" stroke-width="0.5" stroke="black" fill="rosybrown"/>
  <circle cx="531.367" cy="515.294" r="1.05523" stroke-width="0.5" stroke="rosybrown" fill="rosybrown"/>
   </g>
   <g id="cell2955">
  <circle cx="64.3252" cy="493.401" r="10.5" stroke-width="0.5" stroke="black" fill="paleturquoise"/>
  <circle cx="64.3252" cy="493.401" r="4.87399" stroke-width="0.5" stroke="paleturquoise" fill="paleturquoise"/>
   </g>
   <g id="cell3053">
  <circle cx="112.8" cy="18.1832" r="4.85042" stroke-width="0.5" stroke="black" fill="red"/>
  <circle cx="112.8" cy="18.1832" r="2.25137" stroke-width="0.5" stroke="red" fill="red"/>
   </g>
   <g id="cell3419">
  <circle cx="352.557" cy="502.726" r="10.5" stroke-width="0.5" stroke="black" fill="paleturquoise"/>
  <circle cx="352.557" cy="502.726" r="4.87399" stroke-width="0.5" stroke="paleturquoise" fill="paleturquoise"/>
   </g>
   <g id="cell3551">
  <circle cx="211.418" cy="409.384" r="10.5" stroke-width="0.5" stroke="black" fill="paleturquoise"/>
  <circle cx="211.418" cy="409.384" r="4.87399" stroke-width="0.5" stroke="paleturquoise" fill="paleturquoise"/>
   </g>
   <g id="cell3329">
  <circle cx="11.9564" cy="228.532" r="4.85042" stroke-width="0.5" stroke="black" fill="red"/>
  <circle cx="11.9564" cy="228.532" r="2.25137" stroke-width="0.5" stroke="red" fill="red"/>
   </g>
   <g id="cell3693">
  <circle cx="479.953" cy="545.464" r="10.5" stroke-width="0.5" stroke="black" fill="paleturquoise"/>
  <circle cx="479.953" cy="545.464" r="4.87399" stroke-width="0.5" stroke="paleturquoise" fill="paleturquoise"/>
   </g>
   <g id="cell3505">
  <circle cx="246.498" cy="438.407" r="10.5" stroke-width="0.5" stroke="black" fill="paleturquoise"/>
  <circle cx="246.498" cy="438.407" r="4.87399" stroke-width="0.5" stroke="paleturquoise" fill="paleturquoise"/>
   </g>
   <g id="cell3575">
  <circle cx="206.046" cy="363.844" r="10.6672" stroke-width="0.5" stroke="black" fill="paleturquoise"/>
  <circle cx="206.046" cy="363.844" r="4.87245" stroke-width="0.5" stroke="paleturquoise" fill="paleturquoise"/>
   </g>
   <g id="cell3519">
  <circle cx="284.943" cy="379.305" r="10.5" stroke-width="0.5" stroke="black" fill="paleturquoise"/>
  <circle cx="284.943" cy="379.305" r="4.87399" stroke-width="0.5" stroke="paleturquoise" fill="paleturquoise"/>
   </g>
   <g id="cell3592">
  <circle cx="456.084" cy="487.997" r="7.0004" stroke-width="0.5" stroke="black" fill="cyan"/>
  <circle cx="456.084" cy="487.997" r="3.2493" stroke-width="0.5" stroke="cyan" fill="cyan"/>
   </g>
   <g id="cell2940">
  <circle cx="127.166" cy="480.128" r="10.5001" stroke-width="0.5" stroke="black" fill="paleturquoise"/>
  <circle cx="127.166" cy="480.128" r="4.87404" stroke-width="0.5" stroke="paleturquoise" fill="paleturquoise"/>
   </g>
   <g id="cell3405">
  <circle cx="405.007" cy="588.856" r="10.5" stroke-width="0.5" stroke="black" fill="paleturquoise"/>
  <circle cx="405.007" cy="588.856" r="4.87399" stroke-width="0.5" stroke="paleturquoise" fill="paleturquoise"/>
   </g>
   <g id="cell2813">
  <circle cx="269.552" cy="458.73" r="10.5" stroke-width="0.5" stroke="black" fill="paleturquoise"/>
  <circle cx="269.552" cy="458.73" r="4.87399" stroke-width="0.5" stroke="paleturquoise" fill="paleturquoise"/>
   </g>
   <g id="cell3279">
  <circle cx="327.256" cy="508.302" r="10.5" stroke-width="0.5" stroke="black" fill="paleturquoise"/>
  <circle cx="327.256" cy="508.302" r="4.87399" stroke-width="0.5" stroke="paleturquoise" fill="paleturquoise"/>
   </g>
   <g id="cell3041">
  <circle cx="659.545" cy="470.383" r="4.85042" stroke-width="0.5" stroke="black" fill="red"/>
  <circle cx="659.545" cy="470.383" r="2.25137" stroke-width="0.5" stroke="red" fill="red"/>
   </g>
   <g id="cell3472">
  <circle cx="800.164" cy="30.5696" r="7.0004" stroke-width="0.5" stroke="black" fill="rosybrown"/>
  <circle cx="800.164" cy="30.5696" r="3.2493" stroke-width="0.5" stroke="rosybrown" fill="rosybrown"/>
   </g>
   <g id="cell3227">
  <circle cx="580.421" cy="330.775" r="4.85042" stroke-width="0.5" stroke="black" fill="red"/>
  <circle cx="580.421" cy="330.775" r="2.25137" stroke-width="0.5" stroke="red" fill="red"/>
   </g>
   <g id="cell3401">
  <circle cx="89.8699" cy="525.089" r="11.0029" stroke-width="0.5" stroke="black" fill="paleturquoise"/>
  <circle cx="89.8699" cy="525.089" r="4.80139" stroke-width="0.5" stroke="paleturquoise" fill="paleturquoise"/>
   </g>
   <g id="cell3515">
  <circle cx="172.499" cy="553.73" r="10.5" stroke-width="0.5" stroke="black" fill="paleturquoise"/>
  <circle cx="172.499" cy="553.73" r="4.87399" stroke-width="0.5" stroke="paleturquoise" fill="paleturquoise"/>
   </g>
   <g id="cell3243">
  <circle cx="151.886" cy="452.935" r="10.5" stroke-width="0.5" stroke="black" fill="paleturquoise"/>
  <circle cx="151.886" cy="452.935" r="4.87399" stroke-width="0.5" stroke="paleturquoise" fill="paleturquoise"/>
   </g>
   <g id="cell3455">
  <circle cx="134.741" cy="500.402" r="10.5" stroke-width="0.5" stroke="black" fill="paleturquoise"/>
  <circle cx="134.741" cy="500.402" r="4.87399" stroke-width="0.5" stroke="paleturquoise" fill="paleturquoise"/>
   </g>
   <g id="cell3120">
  <circle cx="225.736" cy="395.092" r="10.5" stroke-width="0.5" stroke="black" fill="paleturquoise"/>
  <circle cx="225.736" cy="395.092" r="4.87399" stroke-width="0.5" stroke="paleturquoise" fill="paleturquoise"/>
   </g>
   <g id="cell2852">
  <circle cx="465.831" cy="-0.0657883" r="6.49878" stroke-width="0.5" stroke="black" fill="orangered"/>
  <circle cx="465.831" cy="-0.0657883" r="3.2493" stroke-width="0.5" stroke="orangered" fill="orangered"/>
   </g>
   <g id="cell3044">
  <circle cx="128.776" cy="259.943" r="4.85042" stroke-width="0.5" stroke="black" fill="red"/>
  <circle cx="128.776" cy="259.943" r="2.25137" stroke-width="0.5" stroke="red" fill="red"/>
   </g>
   <g id="cell3156">
  <circle cx="299.22" cy="435.61" r="10.5" stroke-width="0.5" stroke="black" fill="paleturquoise"/>
  <circle cx="299.22" cy="435.61" r="4.87399" stroke-width="0.5" stroke="paleturquoise" fill="paleturquoise"/>
   </g>
   <g id="cell3681">
  <circle cx="576.187" cy="617.784" r="10.5" stroke-width="0.5" stroke="black" fill="paleturquoise"/>
  <circle cx="576.187" cy="617.784" r="4.87399" stroke-width="0.5" stroke="paleturquoise" fill="paleturquoise"/>
   </g>
   <g id="cell3350">
  <circle cx="78.3246" cy="114.307" r="4.85042" stroke-width="0.5" stroke="black" fill="red"/>
  <circle cx="78.3246" cy="114.307" r="2.25137" stroke-width="0.5" stroke="red" fill="red"/>
   </g>
   <g id="cell3188">
  <circle cx="787.969" cy="653.387" r="4.85042" stroke-width="0.5" stroke="black" fill="red"/>
  <circle cx="787.969" cy="653.387" r="2.25137" stroke-width="0.5" stroke="red" fill="red"/>
   </g>
   <g id="cell2967">
  <circle cx="246.073" cy="550.433" r="10.5" stroke-width="0.5" stroke="black" fill="paleturquoise"/>
  <circle cx="246.073" cy="550.433" r="4.87399" stroke-width="0.5" stroke="paleturquoise" fill="paleturquoise"/>
   </g>
   <g id="cell3676">
  <circle cx="188.994" cy="492.718" r="5.33948" stroke-width="0.5" stroke="black" fill="rosybrown"/>
  <circle cx="188.994" cy="492.718" r="2.57443" stroke-width="0.5" stroke="rosybrown" fill="rosybrown"/>
   </g>
   <g id="cell3413">
  <circle cx="498.518" cy="635.888" r="10.5" stroke-width="0.5" stroke="black" fill="paleturquoise"/>
  <circle cx="498.518" cy="635.888" r="4.87399" stroke-width="0.5" stroke="paleturquoise" fill="paleturquoise"/>
   </g>
   <g id="cell2864">
  <circle cx="300.751" cy="800.045" r="6.49878" stroke-width="0.5" stroke="black" fill="orangered"/>
  <circle cx="300.751" cy="800.045" r="3.2493" stroke-width="0.5" stroke="orangered" fill="orangered"/>
   </g>
   <g id="cell3655">
  <circle cx="152.696" cy="566.203" r="10.5" stroke-width="0.5" stroke="black" fill="paleturquoise"/>
  <circle cx="152.696" cy="566.203" r="4.87399" stroke-width="0.5" stroke="paleturquoise" fill="paleturquoise"/>
   </g>
   <g id="cell3695">
  <circle cx="48.9161" cy="550.359" r="10.5" stroke-width="0.5" stroke="black" fill="paleturquoise"/>
  <circle cx="48.9161" cy="550.359" r="4.87399" stroke-width="0.5" stroke="paleturquoise" fill="paleturquoise"/>
   </g>
   <g id="cell3203">
  <circle cx="441.889" cy="167.223" r="4.85042" stroke-width="0.5" stroke="black" fill="red"/>
  <circle cx="441.889" cy="167.223" r="2.25137" stroke-width="0.5" stroke="red" fill="red"/>
   </g>
   <g id="cell3559">
  <circle cx="267.424" cy="602.351" r="10.5001" stroke-width="0.5" stroke="black" fill="paleturquoise"/>
  <circle cx="267.424" cy="602.351" r="4.87402" stroke-width="0.5" stroke="paleturquoise" fill="paleturquoise"/>
   </g>
   <g id="cell3206">
  <circle cx="280.065" cy="256.42" r="4.85042" stroke-width="0.5" stroke="black" fill="red"/>
  <circle cx="280.065" cy="256.42" r="2.25137" stroke-width="0.5" stroke="red" fill="red"/>
   </g>
   <g id="cell3182">
  <circle cx="430.441" cy="385.822" r="4.85042" stroke-width="0.5" stroke="black" fill="red"/>
  <circle cx="430.441" cy="385.822" r="2.25137" stroke-width="0.5" stroke="red" fill="red"/>
   </g>
   <g id="cell3645">
  <circle cx="330.239" cy="669.08" r="10.5094" stroke-width="0.5" stroke="black" fill="paleturquoise"/>
  <circle cx="330.239" cy="669.08" r="4.87678" stroke-width="0.5" stroke="paleturquoise" fill="paleturquoise"/>
   </g>
   <g id="cell3285">
  <circle cx="195.617" cy="506.346" r="10.5" stroke-width="0.5" stroke="black" fill="paleturquoise"/>
  <circle cx="195.617" cy="506.346" r="4.87399" stroke-width="0.5" stroke="paleturquoise" fill="paleturquoise"/>
   </g>
   <g id="cell3183">
  <circle cx="250.7" cy="331.878" r="10.5" stroke-width="0.5" stroke="black" fill="paleturquoise"/>
  <circle cx="250.7" cy="331.878" r="4.87399" stroke-width="0.5" stroke="paleturquoise" fill="paleturquoise"/>
   </g>
   <g id="cell3377">
  <circle cx="400.439" cy="555.417" r="4.85042" stroke-width="0.5" stroke="black" fill="red"/>
  <circle cx="400.439" cy="555.417" r="2.25137" stroke-width="0.5" stroke="red" fill="red"/>
   </g>
   <g id="cell3113">
  <circle cx="585.327" cy="258.674" r="2.37331" stroke-width="0.5" stroke="black" fill="rosybrown"/>
  <circle cx="585.327" cy="258.674" r="1.34016" stroke-width="0.5" stroke="rosybrown" fill="rosybrown"/>
   </g>
   <g id="cell2802">
  <circle cx="362.594" cy="538.244" r="10.5" stroke-width="0.5" stroke="black" fill="paleturquoise"/>
  <circle cx="362.594" cy="538.244" r="4.87399" stroke-width="0.5" stroke="paleturquoise" fill="paleturquoise"/>
   </g>
   <g id="cell3363">
  <circle cx="408.457" cy="700.45" r="10.5" stroke-width="0.5" stroke="black" fill="paleturquoise"/>
  <circle cx="408.457" cy="700.45" r="4.87399" stroke-width="0.5" stroke="paleturquoise" fill="paleturquoise"/>
   </g>
   <g id="cell3613">
  <circle cx="319.762" cy="375.218" r="10.5" stroke-width="0.5" stroke="black" fill="paleturquoise"/>
  <circle cx="319.762" cy="375.218" r="4.87399" stroke-width="0.5" stroke="paleturquoise" fill="paleturquoise"/>
   </g>
   <g id="cell3439">
  <circle cx="575.449" cy="675.338" r="10.5001" stroke-width="0.5" stroke="black" fill="paleturquoise"/>
  <circle cx="575.449" cy="675.338" r="4.87404" stroke-width="0.5" stroke="paleturquoise" fill="paleturquoise"/>
   </g>
   <g id="cell2836">
  <circle cx="281.929" cy="297.756" r="10.5001" stroke-width="0.5" stroke="black" fill="paleturquoise"/>
  <circle cx="281.929" cy="297.756" r="4.87403" stroke-width="0.5" stroke="paleturquoise" fill="paleturquoise"/>
   </g>
   <g id="cell3665">
  <circle cx="168.479" cy="517.576" r="10.5" stroke-width="0.5" stroke="black" fill="paleturquoise"/>
  <circle cx="168.479" cy="517.576" r="4.87399" stroke-width="0.5" stroke="paleturquoise" fill="paleturquoise"/>
   </g>
   <g id="cell2815">
  <circle cx="296.327" cy="472.389" r="10.5" stroke-width="0.5" stroke="black" fill="paleturquoise"/>
  <circle cx="296.327" cy="472.389" r="4.87399" stroke-width="0.5" stroke="paleturquoise" fill="paleturquoise"/>
   </g>
   <g id="cell3691">
  <circle cx="357.54" cy="390.788" r="10.5" stroke-width="0.5" stroke="black" fill="paleturquoise"/>
  <circle cx="357.54" cy="390.788" r="4.87399" stroke-width="0.5" stroke="paleturquoise" fill="paleturquoise"/>
   </g>
   <g id="cell2984">
  <circle cx="458.888" cy="236.959" r="0.666606" stroke-width="0.5" stroke="black" fill="rosybrown"/>
  <circle cx="458.888" cy="236.959" r="0.647681" stroke-width="0.5" stroke="rosybrown" fill="rosybrown"/>
   </g>
   <g id="cell3639">
  <circle cx="612.743" cy="690.423" r="10.5013" stroke-width="0.5" stroke="black" fill="paleturquoise"/>
  <circle cx="612.743" cy="690.423" r="4.87405" stroke-width="0.5" stroke="paleturquoise" fill="paleturquoise"/>
   </g>
   <g id="cell3042">
  <circle cx="419.897" cy="626.303" r="10.5" stroke-width="0.5" stroke="black" fill="paleturquoise"/>
  <circle cx="419.897" cy="626.303" r="4.87399" stroke-width="0.5" stroke="paleturquoise" fill="paleturquoise"/>
   </g>
   <g id="cell2810">
  <circle cx="171.456" cy="446.232" r="10.5" stroke-width="0.5" stroke="black" fill="paleturquoise"/>
  <circle cx="171.456" cy="446.232" r="4.87399" stroke-width="0.5" stroke="paleturquoise" fill="paleturquoise"/>
   </g>
   <g id="cell2978">
  <circle cx="21.3435" cy="471.38" r="4.85042" stroke-width="0.5" stroke="black" fill="red"/>
  <circle cx="21.3435" cy="471.38" r="2.25137" stroke-width="0.5" stroke="red" fill="red"/>
   </g>
   <g id="cell2883">
  <circle cx="213.945" cy="454.878" r="10.598" stroke-width="0.5" stroke="black" fill="paleturquoise"/>
  <circle cx="213.945" cy="454.878" r="4.90111" stroke-width="0.5" stroke="paleturquoise" fill="paleturquoise"/>
   </g>
   <g id="cell3045">
  <circle cx="313.619" cy="569.281" r="10.5" stroke-width="0.5" stroke="black" fill="paleturquoise"/>
  <circle cx="313.619" cy="569.281" r="4.87399" stroke-width="0.5" stroke="paleturquoise" fill="paleturquoise"/>
   </g>
   <g id="cell3549">
  <circle cx="277.435" cy="566.652" r="10.5" stroke-width="0.5" stroke="black" fill="paleturquoise"/>
  <circle cx="277.435" cy="566.652" r="4.87399" stroke-width="0.5" stroke="paleturquoise" fill="paleturquoise"/>
   </g>
   <g id="cell3126">
  <circle cx="206.979" cy="600.262" r="6.41551" stroke-width="0.5" stroke="black" fill="rosybrown"/>
  <circle cx="206.979" cy="600.262" r="3.31822" stroke-width="0.5" stroke="rosybrown" fill="rosybrown"/>
   </g>
   <g id="cell3368">
  <circle cx="773.578" cy="462.527" r="4.85042" stroke-width="0.5" stroke="black" fill="red"/>
  <circle cx="773.578" cy="462.527" r="2.25137" stroke-width="0.5" stroke="red" fill="red"/>
   </g>
   <g id="cell3449">
  <circle cx="363.791" cy="572.024" r="10.5" stroke-width="0.5" stroke="black" fill="paleturquoise"/>
  <circle cx="363.791" cy="572.024" r="4.87399" stroke-width="0.5" stroke="paleturquoise" fill="paleturquoise"/>
   </g>
   <g id="cell3420">
  <circle cx="745.387" cy="800.065" r="5.81454" stroke-width="0.5" stroke="black" fill="rosybrown"/>
  <circle cx="745.387" cy="800.065" r="2.75187" stroke-width="0.5" stroke="rosybrown" fill="rosybrown"/>
   </g>
   <g id="cell3069">
  <circle cx="303.954" cy="613.625" r="10.5006" stroke-width="0.5" stroke="black" fill="paleturquoise"/>
  <circle cx="303.954" cy="613.625" r="4.87418" stroke-width="0.5" stroke="paleturquoise" fill="paleturquoise"/>
   </g>
   <g id="cell3429">
  <circle cx="192.811" cy="559.391" r="10.5" stroke-width="0.5" stroke="black" fill="paleturquoise"/>
  <circle cx="192.811" cy="559.391" r="4.87399" stroke-width="0.5" stroke="paleturquoise" fill="paleturquoise"/>
   </g>
   <g id="cell3015">
  <circle cx="476.131" cy="602.91" r="10.5" stroke-width="0.5" stroke="black" fill="paleturquoise"/>
  <circle cx="476.131" cy="602.91" r="4.87399" stroke-width="0.5" stroke="paleturquoise" fill="paleturquoise"/>
   </g>
   <g id="cell2824">
  <circle cx="392.187" cy="628.799" r="10.5034" stroke-width="0.5" stroke="black" fill="paleturquoise"/>
  <circle cx="392.187" cy="628.799" r="4.87499" stroke-width="0.5" stroke="paleturquoise" fill="paleturquoise"/>
   </g>
   <g id="cell2927">
  <circle cx="782.406" cy="289.386" r="4.85042" stroke-width="0.5" stroke="black" fill="red"/>
  <circle cx="782.406" cy="289.386" r="2.25137" stroke-width="0.5" stroke="red" fill="red"/>
   </g>
   <g id="cell3060">
  <circle cx="444.258" cy="608.738" r="10.5" stroke-width="0.5" stroke="black" fill="paleturquoise"/>
  <circle cx="444.258" cy="608.738" r="4.87399" stroke-width="0.5" stroke="paleturquoise" fill="paleturquoise"/>
   </g>
  </g>
 </g>
  <rect x="580" y="828" width="200" height="8" stroke-width="1.6" stroke="rgb(255,255,255)" fill="rgb(0,0,0)"/>
  <text x="585" y="823"
   font-family="Arial" font-size="20" fill="black" >
   200 &#956;m
  </text>
  <text x="20" y="836"
   font-family="Arial" font-size="15" fill="black" >
   0 days, 0 hours, 2 minutes, and 1.3875 seconds
  </text>
  <rect x="0" y="56" width="800" height="800" stroke-width="1.6" stroke="rgb(0,0,0)" fill="none"/>
</svg>
